<svg width="443" height="875" viewBox="0 0 443 875" fill="none" xmlns="http://www.w3.org/2000/svg">
<g opacity="0.1" filter="url(#filter0_d_2_406)">
<path d="M-195.676 723.656C-423.983 816.695 -558.242 735.98 -596.833 683.993L-25.2441 0.92762C134.365 74.1801 450.429 270.215 437.814 468.335C422.045 715.986 300.045 912.734 147.362 856.756C8.24631 805.752 89.7091 607.358 -195.676 723.656Z" fill="url(#paint0_linear_2_406)"/>
<path d="M-195.676 723.656C-423.983 816.695 -558.242 735.98 -596.833 683.993L-25.2441 0.92762C134.365 74.1801 450.429 270.215 437.814 468.335C422.045 715.986 300.045 912.734 147.362 856.756C8.24631 805.752 89.7091 607.358 -195.676 723.656Z" stroke="#DC780B"/>
</g>
<defs>
<filter id="filter0_d_2_406" x="-601.469" y="0.313965" width="1044.15" height="874.536" filterUnits="userSpaceOnUse" color-interpolation-filters="sRGB">
<feFlood flood-opacity="0" result="BackgroundImageFix"/>
<feColorMatrix in="SourceAlpha" type="matrix" values="0 0 0 0 0 0 0 0 0 0 0 0 0 0 0 0 0 0 127 0" result="hardAlpha"/>
<feOffset dy="4"/>
<feGaussianBlur stdDeviation="2"/>
<feComposite in2="hardAlpha" operator="out"/>
<feColorMatrix type="matrix" values="0 0 0 0 0 0 0 0 0 0 0 0 0 0 0 0 0 0 0.25 0"/>
<feBlend mode="normal" in2="BackgroundImageFix" result="effect1_dropShadow_2_406"/>
<feBlend mode="normal" in="SourceGraphic" in2="effect1_dropShadow_2_406" result="shape"/>
</filter>
<linearGradient id="paint0_linear_2_406" x1="-306.352" y1="303.622" x2="280.582" y2="848.699" gradientUnits="userSpaceOnUse">
<stop stop-color="#DC780B"/>
<stop offset="1" stop-color="#DC780B"/>
</linearGradient>
</defs>
</svg>
